# xmcd CD database file
#
# Track frame offsets:
#	150
#	37482
#	86038
#	131701
#	157423
#	187647
#
# Disc length: 2737 seconds
#
# Revision: 4
# Processed by: cddbd v1.5.2PL0 Copyright (c) Steve Scherf et al.
# Submitted via: CDex 1.51
#
DISCID=530aaf06
DTITLE=Chris Rea - The Road To Hell And Back CD 02
DYEAR=2006
DGENRE=Rock
TTITLE0=Somewhere Between Highway 61 and 48
TTITLE1=I Can Hear Your Heart Beat
TTITLE2=The Road To Hell
TTITLE3=On The Beach
TTITLE4=Let's Dance
TTITLE5=Fool (If You Think It's Over)
EXTD=c. 2006 Navybeck - Polydor - JB Jazzee Blue YEAR: 2006
EXTT0=
EXTT1=
EXTT2=
EXTT3=
EXTT4=
EXTT5=
PLAYORDER=
